<svg width="344" height="234" viewBox="0 0 344 234" fill="none" xmlns="http://www.w3.org/2000/svg">
<path d="M37.5763 211.12C27.2031 177.982 51.7357 141.483 65.2986 127.376C77.0837 114.534 109.548 91.8664 143.5 107C175.5 121.264 193.5 189.846 144.597 201.033C136 203 86.4388 190.648 97.9341 130.232C104.445 103.558 115.57 59.9729 163.5 44.5C183.59 35.4943 247.211 21.1781 285.463 90.4857C302.057 120.552 279.817 157.898 241.818 133.873C223.243 123.173 205.5 90.4857 241.818 40.5C258.532 17.4965 289.602 16.7849 305.285 17.6575" stroke="black" stroke-width="3"/>
<path d="M18 191L37 209.5L52 191" stroke="black" stroke-width="4"/>
</svg>
